<svg viewBox="0 0 64 64" xmlns="http://www.w3.org/2000/svg" xmlns:xlink="http://www.w3.org/1999/xlink"><linearGradient id="_2b" gradientUnits="userSpaceOnUse" x1="32" x2="32" y1="52" y2="12"><stop offset="0" stop-color="#adddff"/><stop offset=".9934" stop-color="#eaf6ff"/></linearGradient><linearGradient id="_1b" gradientUnits="userSpaceOnUse" x1="32" x2="32" y1="62.75" y2="1.25"><stop offset="0" stop-color="#535aff"/><stop offset="1" stop-color="#13a9ff"/></linearGradient><g id="Icons"><path d="m52 42v6h-27l-3 4h-6v-27l-4-3v-6h27l3-4h6v27l2.67 2z" fill="url(#_2b)"/><path d="m36.75 6v10h-1.5v-10a.75.75 0 0 1 1.5 0zm-9.52.78-1.79-.9a1.23136 1.23136 0 0 1 -.69-1.12v-2.76a.75.75 0 0 0 -1.5 0v2.76a2.73057 2.73057 0 0 0 1.52 2.46l1.79.9a1.23129 1.23129 0 0 1 .69 1.12v6.76h1.5v-6.76a2.73067 2.73067 0 0 0 -1.52-2.46zm-3.23 2.47a.75546.75546 0 0 0 -.75.75v6h1.5v-6a.75542.75542 0 0 0 -.75-.75zm8-8a.75546.75546 0 0 0 -.75.75v14h1.5v-14a.75542.75542 0 0 0 -.75-.75zm-26 26a.75.75 0 0 0 0 1.5h10v-1.5zm3.24 8a2.73052 2.73052 0 0 0 -2.46 1.52l-.9 1.79a1.23129 1.23129 0 0 1 -1.12.69h-2.76a.75.75 0 0 0 0 1.5h2.76a2.73073 2.73073 0 0 0 2.46-1.52l.9-1.79a1.23136 1.23136 0 0 1 1.12-.69h6.76v-1.5zm.76 4a.75.75 0 0 0 0 1.5h6v-1.5zm-8-8a.75.75 0 0 0 0 1.5h14v-1.5zm25.25 16.75v10a.75.75 0 0 0 1.5 0v-10zm11.98 8.78-1.79-.9a1.23136 1.23136 0 0 1 -.69-1.12v-6.76h-1.5v6.76a2.73057 2.73057 0 0 0 1.52 2.46l1.79.9a1.23129 1.23129 0 0 1 .69 1.12v2.76a.75.75 0 0 0 1.5 0v-2.76a2.73067 2.73067 0 0 0 -1.52-2.46zm.02-8.78v6a.75.75 0 0 0 1.5 0v-6zm-8 0v14a.75.75 0 0 0 1.5 0v-14zm26.75-12.75h-10v1.5h10a.75.75 0 0 0 0-1.5zm4-12h-2.76a2.73052 2.73052 0 0 0 -2.46 1.52l-.9 1.79a1.23136 1.23136 0 0 1 -1.12.69h-6.76v1.5h6.76a2.73057 2.73057 0 0 0 2.46-1.52l.9-1.79a1.23136 1.23136 0 0 1 1.12-.69h2.76a.75.75 0 0 0 0-1.5zm-8 0h-6v1.5h6a.75.75 0 0 0 0-1.5zm8 8h-14v1.5h14a.75.75 0 0 0 0-1.5zm-32-2.18945-1.88379 1.88379a1.242 1.242 0 0 0 -.36621.88427v.42139h4.5v-.42139a1.242 1.242 0 0 0 -.36621-.88427zm11-4.06055v14a2.00587 2.00587 0 0 1 -2 2h-14a2.00591 2.00591 0 0 1 -2-2v-14a2.00587 2.00587 0 0 1 2-2h14a2.00583 2.00583 0 0 1 2 2zm-7.25 6.82861a2.732 2.732 0 0 0 -.80566-1.94482l-2.41407-2.41406a.74972.74972 0 0 0 -1.06054 0l-2.41407 2.41406a2.732 2.732 0 0 0 -.80566 1.94482v4.17139a.75.75 0 0 0 1.5 0v-2.25h4.5v2.25a.75.75 0 0 0 1.5 0zm4-3.523a.75.75 0 0 0 -1.5 0v7.69439a.75.75 0 0 0 1.5 0z" fill="url(#_1b)"/></g></svg>